<?xml version="1.0" standalone="no"?>
<!DOCTYPE svg PUBLIC "-//W3C//DTD SVG 20010904//EN"
 "http://www.w3.org/TR/2001/REC-SVG-20010904/DTD/svg10.dtd">
<svg version="1.0" xmlns="http://www.w3.org/2000/svg"
 width="640.000000pt" height="640.000000pt" viewBox="0 0 640.000000 640.000000"
 preserveAspectRatio="xMidYMid meet">

<g transform="translate(0.000000,640.000000) scale(0.100000,-0.100000)"
fill="#000000" stroke="none">
<path d="M0 5946 l0 -453 83 -6 c45 -4 153 -7 240 -7 125 0 159 3 163 14 5 14
-5 243 -26 561 -6 88 -13 202 -16 253 l-6 92 -219 0 -219 0 0 -454z"/>
<path d="M3205 6390 c4 -6 11 -8 16 -5 14 9 11 15 -7 15 -8 0 -12 -5 -9 -10z"/>
<path d="M4915 6278 c4 -68 11 -172 14 -233 7 -133 27 -146 25 -17 -2 115 -14
321 -20 350 -2 12 -9 22 -16 22 -8 0 -9 -34 -3 -122z"/>
<path d="M5240 6391 c0 -5 -9 -13 -20 -16 -11 -3 -20 -12 -20 -20 0 -7 -9 -15
-20 -18 -16 -4 -20 -14 -20 -50 0 -25 5 -49 10 -52 6 -3 10 -14 10 -23 0 -26
38 -46 56 -31 22 18 42 -4 24 -26 -11 -13 -8 -15 19 -15 17 0 30 -3 29 -7 -5
-14 6 -15 35 -4 15 6 27 17 27 26 0 17 -16 20 -25 5 -10 -15 -35 -12 -35 5 0
8 -4 15 -9 15 -5 0 -17 8 -26 17 -14 14 -20 14 -38 4 -18 -12 -23 -10 -38 10
-10 13 -19 41 -19 61 0 39 14 58 24 33 8 -23 39 -19 33 4 -3 12 4 28 19 42 29
27 31 49 4 49 -11 0 -20 -4 -20 -9z"/>
<path d="M5686 6385 c-20 -15 -15 -45 8 -45 14 0 15 -46 1 -81 -6 -17 36 -69
56 -69 8 0 5 7 -5 19 -20 22 -14 43 9 34 26 -9 16 23 -10 35 -14 6 -25 18 -25
27 0 18 21 20 38 3 17 -17 25 -3 12 21 -6 12 -19 21 -30 21 -17 0 -18 4 -10
25 8 21 7 25 -8 25 -9 0 -25 -7 -36 -15z"/>
<path d="M6121 6383 c-5 -10 -13 -16 -18 -13 -4 3 -12 -5 -18 -17 -12 -27 -30
-29 -45 -5 -8 13 -10 9 -8 -23 3 -35 6 -40 26 -37 22 3 23 1 20 -45 -2 -34 -7
-48 -18 -49 -8 -1 -23 -2 -32 -3 -31 -2 -50 -57 -51 -151 -2 -79 0 -90 25
-126 26 -38 58 -121 58 -149 0 -7 6 -20 13 -27 57 -61 67 -79 61 -122 -5 -32
-1 -53 16 -86 22 -43 23 -80 5 -167 -7 -33 -7 -33 26 -27 19 4 36 7 39 8 6 1
10 -9 10 -25 0 -5 -4 -7 -10 -4 -6 4 -10 -15 -10 -49 0 -45 -4 -58 -20 -68
-11 -7 -20 -22 -20 -33 0 -11 -9 -34 -19 -51 -10 -17 -21 -48 -24 -70 -12 -80
-20 -109 -33 -117 -8 -4 -14 -16 -14 -25 0 -10 -4 -22 -9 -27 -9 -9 -22 -54
-40 -135 -4 -19 -13 -45 -19 -57 -14 -26 -16 -92 -3 -112 6 -10 35 -16 93 -18
50 -3 105 -13 138 -25 30 -12 79 -23 108 -25 l52 -5 0 951 0 951 -135 0 c-117
0 -135 -2 -144 -17z m-41 -270 c-1 -18 -10 -35 -25 -46 -23 -17 -25 -17 -34 1
-12 22 4 43 25 35 9 -3 14 2 14 16 0 12 5 21 10 21 6 0 10 -12 10 -27z"/>
<path d="M4737 6373 c-9 -9 -9 -43 1 -43 18 1 34 19 29 34 -7 17 -19 21 -30 9z"/>
<path d="M3953 6323 c-21 -8 -15 -23 8 -23 17 0 20 -5 17 -25 -4 -21 -1 -25
17 -25 16 0 22 -6 21 -17 -1 -12 7 -19 24 -21 14 -2 30 -10 37 -19 13 -17 44
-14 51 5 2 6 -4 12 -14 12 -18 0 -114 92 -114 109 0 11 -25 13 -47 4z"/>
<path d="M4686 6281 c-27 -30 -2 -54 33 -32 8 5 11 16 6 30 -8 26 -17 26 -39
2z"/>
<path d="M5215 6260 c-9 -15 -1 -23 21 -18 15 3 16 4 1 16 -11 9 -17 10 -22 2z"/>
<path d="M3800 6246 c0 -9 5 -16 10 -16 6 0 10 4 10 9 0 6 -4 13 -10 16 -5 3
-10 -1 -10 -9z"/>
<path d="M5669 6204 c-8 -11 -28 -27 -44 -36 -38 -21 -50 -40 -41 -64 7 -18 8
-18 22 1 8 11 23 20 32 20 11 0 18 10 20 28 2 19 9 27 23 27 21 0 23 8 10 29
-7 10 -11 9 -22 -5z"/>
<path d="M4615 6200 c-3 -5 1 -10 9 -10 8 0 18 5 21 10 3 6 -1 10 -9 10 -8 0
-18 -4 -21 -10z"/>
<path d="M4157 6183 c-3 -5 -2 -15 3 -22 10 -17 43 -6 38 12 -6 15 -34 22 -41
10z"/>
<path d="M4239 6169 c-11 -6 -11 -11 -2 -20 12 -12 43 -6 43 10 0 14 -25 20
-41 10z"/>
<path d="M4325 6161 c-8 -15 3 -31 21 -31 9 0 14 7 12 17 -4 20 -24 28 -33 14z"/>
<path d="M5471 6141 c-22 -22 -28 -51 -11 -51 6 0 13 7 16 15 8 19 24 19 38 0
10 -14 13 -14 34 0 24 18 26 23 13 44 -8 12 -12 12 -25 2 -12 -11 -19 -11 -30
-2 -12 10 -19 8 -35 -8z"/>
<path d="M5393 6134 c-3 -8 0 -21 6 -27 10 -9 16 -8 26 7 8 10 12 23 9 27 -9
15 -34 10 -41 -7z"/>
<path d="M4285 6081 c-3 -5 -1 -12 4 -15 5 -3 11 1 15 9 6 16 -9 21 -19 6z"/>
<path d="M4284 6035 c-15 -26 -28 -253 -29 -480 0 -154 2 -180 15 -180 13 0
15 39 13 300 0 177 3 307 9 318 5 10 8 28 6 40 -3 22 -4 22 -14 2z"/>
<path d="M5240 5988 c0 -7 21 -33 46 -57 38 -37 50 -42 75 -37 16 3 29 1 29
-4 0 -10 52 -40 70 -40 21 0 9 50 -19 79 -46 47 -201 92 -201 59z"/>
<path d="M5284 5785 c-10 -24 5 -35 47 -35 42 0 48 9 23 34 -19 20 -63 21 -70
1z"/>
<path d="M5376 5731 c-30 -6 -49 -31 -24 -31 8 0 31 -9 52 -20 30 -15 43 -17
59 -8 20 10 19 12 -14 39 -19 16 -36 28 -39 28 -3 -1 -18 -4 -34 -8z"/>
<path d="M3640 5410 c0 -5 9 -10 20 -10 11 0 20 5 20 10 0 6 -9 10 -20 10 -11
0 -20 -4 -20 -10z"/>
<path d="M5797 5393 c-13 -12 -7 -53 7 -53 20 0 29 16 21 40 -6 20 -17 25 -28
13z"/>
<path d="M5906 5371 c-23 -25 -17 -55 12 -59 29 -4 52 39 32 63 -16 20 -23 19
-44 -4z"/>
<path d="M5695 5360 c-8 -25 1 -40 25 -40 22 0 30 19 18 43 -12 23 -35 22 -43
-3z"/>
<path d="M5616 5341 c-4 -5 -2 -12 3 -15 5 -4 12 -2 15 3 4 5 2 12 -3 15 -5 4
-12 2 -15 -3z"/>
<path d="M0 5261 c0 -5 11 -12 25 -15 34 -9 34 -43 0 -52 l-25 -6 0 -164 0
-164 34 0 c19 0 38 -4 41 -10 3 -5 32 -10 63 -11 31 0 115 -7 187 -15 72 -8
174 -16 228 -19 53 -2 103 -8 110 -12 6 -4 50 -11 97 -14 47 -4 179 -18 295
-33 432 -54 806 -87 817 -72 25 37 34 46 47 46 14 0 51 37 51 52 0 4 10 8 23
8 17 0 28 -10 40 -35 21 -43 21 -64 2 -89 -8 -11 -15 -28 -15 -38 0 -17 -64
-68 -86 -68 -16 0 -124 -71 -124 -81 0 -5 -11 -9 -24 -9 -14 0 -32 -12 -46
-30 -20 -27 -29 -30 -76 -30 -47 0 -55 -3 -76 -30 -13 -17 -40 -49 -60 -71
-22 -23 -38 -50 -38 -64 0 -13 -11 -45 -25 -71 -16 -31 -25 -63 -25 -93 0 -50
-13 -71 -42 -71 -10 0 -26 -9 -35 -20 -10 -11 -23 -20 -30 -20 -22 0 -35 -36
-18 -50 8 -7 15 -21 15 -31 0 -19 -2 -19 -31 -4 -28 15 -35 15 -85 -1 l-54
-17 0 -48 c0 -26 -4 -58 -9 -71 -6 -13 -13 -57 -16 -99 -6 -72 -8 -76 -30 -76
-27 0 -101 -65 -109 -96 -3 -12 -19 -31 -35 -42 -17 -11 -32 -29 -33 -40 -2
-14 -12 -21 -31 -23 -22 -3 -32 -12 -43 -37 -8 -19 -14 -44 -14 -55 0 -12 -11
-31 -25 -44 -14 -13 -25 -31 -25 -41 0 -10 -20 -43 -45 -73 -26 -31 -45 -65
-45 -79 0 -13 -4 -32 -10 -42 -5 -10 -14 -61 -21 -112 -12 -102 -54 -211 -106
-275 -63 -77 -202 -212 -257 -249 -74 -50 -170 -145 -186 -186 -16 -38 2 -158
28 -188 26 -29 104 -48 252 -60 74 -7 167 -16 205 -22 39 -5 108 -13 154 -18
73 -6 87 -11 105 -33 36 -43 72 -60 137 -63 76 -4 149 -25 149 -43 0 -7 -17
-20 -37 -29 -21 -8 -39 -16 -40 -17 0 0 -4 -22 -8 -47 -7 -45 -6 -46 29 -67
19 -12 37 -31 40 -44 20 -98 29 -127 41 -131 9 -4 11 1 8 14 -4 15 0 19 20 19
34 0 40 -12 29 -54 -8 -28 -6 -38 12 -59 30 -37 147 -95 172 -86 10 4 38 13
62 20 23 7 42 16 42 21 0 4 9 8 20 8 15 0 20 -7 20 -29 0 -38 37 -86 55 -71
10 8 19 3 36 -19 70 -86 72 -94 34 -139 -14 -17 -25 -35 -25 -41 0 -6 -4 -11
-10 -11 -5 0 -10 -20 -10 -45 0 -24 -8 -60 -17 -80 -16 -33 -16 -38 -1 -68 9
-18 20 -46 23 -64 7 -35 42 -56 112 -68 46 -7 74 -37 107 -111 9 -22 33 -53
52 -69 28 -23 34 -35 34 -67 0 -44 13 -53 92 -63 25 -3 52 -13 59 -21 19 -23
135 -74 188 -84 72 -12 174 -39 196 -52 11 -7 76 -14 145 -18 69 -3 131 -9
138 -13 6 -5 51 -12 99 -17 47 -5 89 -13 92 -18 6 -10 87 -18 251 -28 52 -3
111 -11 130 -19 23 -9 124 -17 295 -25 291 -12 325 -16 325 -36 0 -12 186 -14
1220 -14 l1220 0 0 2206 0 2205 -35 15 c-36 15 -95 18 -157 8 -36 -6 -38 -8
-38 -46 0 -26 7 -47 23 -63 69 -75 67 -73 57 -100 -8 -21 -16 -25 -48 -25 -42
0 -77 -30 -100 -83 -13 -31 -26 -48 -63 -83 -15 -14 -29 -39 -33 -55 -7 -37
-46 -42 -46 -6 -1 31 -48 82 -92 100 -29 12 -38 22 -38 39 0 32 -23 63 -59 78
-17 7 -39 27 -50 46 -22 37 -70 71 -113 80 -14 4 -41 21 -59 40 -18 19 -42 34
-53 34 -12 0 -47 18 -78 40 l-58 40 -137 6 c-121 6 -140 5 -152 -10 -14 -17
-41 -22 -41 -8 0 5 -6 16 -13 26 -12 16 -16 13 -46 -34 -34 -52 -35 -53 -87
-33 -17 6 -54 -45 -54 -74 0 -30 -17 -63 -32 -63 -6 0 -19 -7 -28 -15 -16 -14
-24 -14 -80 1 -59 17 -61 19 -56 45 5 25 2 27 -36 33 -64 10 -146 42 -179 70
-17 14 -36 26 -43 26 -7 0 -23 11 -35 24 -12 13 -41 31 -64 41 -23 9 -49 21
-57 26 -8 5 -29 16 -47 24 -17 8 -34 19 -37 23 -3 5 -26 12 -51 15 -24 4 -81
25 -125 47 -44 22 -88 40 -98 40 -41 0 -139 33 -180 60 -24 16 -61 34 -81 41
-20 7 -52 24 -71 39 -54 42 -89 56 -165 69 -38 6 -99 26 -134 42 -51 25 -70
30 -100 24 -20 -4 -56 -10 -81 -15 -25 -4 -58 -12 -73 -19 -16 -6 -49 -11 -74
-11 -26 0 -72 -6 -102 -14 -31 -8 -81 -20 -111 -26 -30 -7 -65 -22 -78 -33
-18 -17 -34 -20 -88 -19 -38 1 -73 -3 -81 -9 -17 -14 -136 -5 -141 10 -2 6
-13 0 -24 -14 -22 -28 -61 -33 -84 -11 -16 17 -19 36 -4 36 6 0 10 6 10 13 0
12 -129 58 -162 57 -27 0 -48 -11 -48 -26 0 -10 -12 -12 -52 -7 -29 3 -55 8
-58 10 -9 8 26 23 54 23 53 0 14 19 -49 24 -33 2 -75 9 -94 15 -23 7 -38 7
-47 1 -12 -11 -64 6 -64 20 0 4 -26 10 -57 14 -78 8 -91 11 -99 19 -4 4 -26 7
-48 7 -23 0 -73 7 -111 16 -39 8 -88 18 -109 20 -22 3 -47 9 -55 14 -9 4 -41
11 -71 14 -114 14 -196 27 -215 36 -11 5 -60 13 -110 19 -49 6 -106 13 -126
17 -31 5 -37 3 -42 -15 -3 -12 -12 -21 -20 -21 -17 0 -32 34 -23 49 8 12 -22
22 -60 21 -16 -1 -54 6 -84 15 -30 9 -81 18 -114 20 -32 2 -61 6 -64 9 -13 13
-48 5 -60 -15 -9 -14 -21 -19 -40 -17 -22 2 -28 9 -30 35 -3 29 -7 32 -53 42
-61 13 -89 14 -89 2z m160 -111 c0 -6 12 -8 28 -5 23 5 24 4 9 -5 -19 -12 -57
-5 -57 11 0 5 5 9 10 9 6 0 10 -5 10 -10z m280 -5 c5 3 24 -1 42 -9 31 -13 31
-14 8 -15 -41 -1 -70 10 -69 28 0 10 2 11 6 3 2 -6 9 -10 13 -7z m706 -121
c18 -14 18 -15 -6 -8 -31 8 -50 24 -29 24 8 0 24 -7 35 -16z m14 -74 c0 -5
-18 -10 -40 -10 -22 0 -40 5 -40 10 0 6 18 10 40 10 22 0 40 -4 40 -10z m360
0 c0 -13 -11 -13 -30 0 -12 8 -11 10 8 10 12 0 22 -4 22 -10z m-407 -57 c-7
-2 -19 -2 -25 0 -7 3 -2 5 12 5 14 0 19 -2 13 -5z m5223 -848 c7 -29 -25 -88
-92 -170 -24 -30 -44 -59 -44 -64 0 -15 -98 -92 -153 -121 -45 -23 -55 -33
-72 -78 -11 -28 -24 -50 -30 -48 -12 4 -8 105 6 158 10 38 53 78 84 78 9 0 30
13 47 29 23 21 31 38 33 69 1 29 12 51 41 86 21 25 44 46 51 46 7 0 13 6 13
14 0 8 17 21 38 29 44 18 69 9 78 -28z"/>
<path d="M0 3685 l0 -625 28 0 c15 1 47 5 72 11 25 5 88 16 140 25 52 8 118
19 145 23 28 5 85 15 129 22 l78 14 -5 80 c-4 44 -11 206 -17 360 -12 328 -35
668 -44 684 -4 7 -14 8 -24 3 -33 -16 -223 0 -249 20 -8 7 -18 5 -28 -6 -20
-20 -52 -20 -85 -1 -14 8 -51 14 -82 15 l-58 0 0 -625z"/>
</g>
</svg>
